<svg width="24" height="24" viewBox="0 0 24 24" fill="none" xmlns="http://www.w3.org/2000/svg">
<path d="M5 21C4.45 21 3.979 20.804 3.587 20.412C3.195 20.02 2.99934 19.5493 3 19V5C3 4.45 3.196 3.979 3.588 3.587C3.98 3.195 4.45067 2.99933 5 3H10V5H5V19H19V13.65L21 15.65V19C21 19.55 20.804 20.021 20.412 20.413C20.02 20.805 19.5493 21.0007 19 21H5ZM20.85 12.7L18.45 10.3C18.1 10.5333 17.725 10.7083 17.325 10.825C16.925 10.9417 16.5 11 16.05 11C14.8167 11 13.7667 10.5623 12.9 9.687C12.0333 8.81167 11.6 7.74933 11.6 6.5C11.6 5.25 12.0377 4.18733 12.913 3.312C13.7883 2.43667 14.8507 1.99933 16.1 2C17.35 2 18.4127 2.43767 19.288 3.313C20.1633 4.18833 20.6007 5.25067 20.6 6.5C20.6 6.95 20.5333 7.38333 20.4 7.8C20.2667 8.21667 20.1 8.6 19.9 8.95L22.25 11.3C22.4333 11.4833 22.525 11.7167 22.525 12C22.525 12.2833 22.4333 12.5167 22.25 12.7C22.0667 12.8833 21.8333 12.975 21.55 12.975C21.2667 12.975 21.0333 12.8833 20.85 12.7ZM16.1 9C16.8 9 17.3917 8.75833 17.875 8.275C18.3583 7.79167 18.6 7.2 18.6 6.5C18.6 5.8 18.3583 5.20833 17.875 4.725C17.3917 4.24167 16.8 4 16.1 4C15.4 4 14.8083 4.24167 14.325 4.725C13.8417 5.20833 13.6 5.8 13.6 6.5C13.6 7.2 13.8417 7.79167 14.325 8.275C14.8083 8.75833 15.4 9 16.1 9ZM7 17C6.8 17 6.65 16.9083 6.55 16.725C6.45 16.5417 6.46667 16.3667 6.6 16.2L8.6 13.525C8.7 13.3917 8.83334 13.325 9 13.325C9.16667 13.325 9.3 13.3917 9.4 13.525L11.25 16L13.85 12.525C13.95 12.3917 14.0833 12.325 14.25 12.325C14.4167 12.325 14.55 12.3917 14.65 12.525L17.4 16.2C17.5333 16.3667 17.55 16.5417 17.45 16.725C17.35 16.9083 17.2 17 17 17H7Z" fill="black"/>
</svg>
